<svg baseProfile="full" height="1080" version="1.1" viewBox="0 0 1920 1080" width="1920" xmlns="http://www.w3.org/2000/svg" 
  xmlns:ev="http://www.w3.org/2001/xml-events" xmlns:xlink="http://www.w3.org/1999/xlink"><defs>
    <marker id="arrowHead" markerHeight="10" markerWidth="10" orient="auto" refX="10" refY="5">
      <path d="M 0 0 L 10 5 L 0 10 z" fill="#0B2F63" /></marker></defs>
  <rect fill="#FFFFFF" height="1080" width="1920" x="0" y="0" />
  <text fill="#082452" font-family="Calibri, Arial, Helvetica, sans-serif" font-size="48" font-weight="bold" 
    text-anchor="middle" x="960.0" y="95">
    <tspan dy="0" x="960.0">Flujo conceptual del piloto experimental offline</tspan></text>
  <g id="block_1"><rect fill="#FFFFFF" height="560" rx="15" ry="15" stroke="#0A2A59" stroke-width="4" width="243" x="34" y="252" />
    <circle cx="155.5" cy="302" fill="#EAF4FF" r="31" stroke="#6DA7E8" stroke-width="2.5" />
    <text fill="#082452" font-family="Calibri, Arial, Helvetica, sans-serif" font-size="33" font-weight="bold" 
      text-anchor="middle" x="155.5" y="315"><tspan dy="0" x="155.5">1</tspan></text>
    <polyline fill="none" points="118.5,378.0 171.78,378.0 192.5,406.56 192.5,480.0 118.5,480.0 118.5,378.0" 
      stroke="#082452" stroke-linecap="round" stroke-linejoin="round" stroke-width="3.2" />
    <polyline fill="none" points="171.78,378.0 171.78,406.56 192.5,406.56" stroke="#082452" 
      stroke-linecap="round" stroke-linejoin="round" stroke-width="3.2" />
    <rect fill="none" height="22.0" rx="1.5" ry="1.5" stroke="#082452" stroke-width="3.0" width="16.0" x="131.82" y="398.4" />
    <line stroke="#082452" stroke-linecap="round" stroke-width="2.6" x1="131.82" x2="175.82" y1="434.1" y2="434.1" />
    <line stroke="#082452" stroke-linecap="round" stroke-width="2.6" x1="131.82" x2="183.82" y1="445.32" y2="445.32" />
    <line stroke="#082452" stroke-linecap="round" stroke-width="2.6" x1="131.82" x2="181.82" y1="456.54" y2="456.54" />
    <line stroke="#082452" stroke-linecap="round" stroke-width="2.6" x1="131.82" x2="177.82" y1="467.76" y2="467.76" />
    <line stroke="#082452" stroke-linecap="round" stroke-width="2.6" x1="131.82" x2="168.82" y1="478.98" y2="478.98" />
    <text fill="#082452" font-family="Calibri, Arial, Helvetica, sans-serif" font-size="34" font-weight="bold" 
      text-anchor="middle" x="155.5" y="572"><tspan dy="0" x="155.5">Descripción</tspan>
      <tspan dy="37.400000000000006" x="155.5">textual de</tspan><tspan dy="37.400000000000006" x="155.5">mercancía</tspan></text></g>
  <g id="block_2"><rect fill="#FFFFFF" height="560" rx="15" ry="15" stroke="#0A2A59" stroke-width="4" width="243" x="334" y="252" />
    <circle cx="455.5" cy="302" fill="#EAF4FF" r="31" stroke="#6DA7E8" stroke-width="2.5" />
    <text fill="#082452" font-family="Calibri, Arial, Helvetica, sans-serif" font-size="33" 
      font-weight="bold" text-anchor="middle" x="455.5" y="315"><tspan dy="0" x="455.5">2</tspan></text>
    <rect fill="none" height="16.0" rx="4.0" ry="4.0" stroke="#082452" stroke-width="3.0" width="68.0" x="393.5" y="379.0" />
    <line stroke="#082452" stroke-linecap="round" stroke-width="2.2" x1="405.5" x2="445.5" y1="387.0" y2="387.0" />
    <rect fill="none" height="16.0" rx="4.0" ry="4.0" stroke="#082452" stroke-width="3.0" width="68.0" x="393.5" y="403.0" />
    <line stroke="#082452" stroke-linecap="round" stroke-width="2.2" x1="405.5" x2="445.5" y1="411.0" y2="411.0" />
    <rect fill="none" height="16.0" rx="4.0" ry="4.0" stroke="#082452" stroke-width="3.0" width="68.0" x="393.5" y="427.0" />
    <line stroke="#082452" stroke-linecap="round" stroke-width="2.2" x1="405.5" x2="445.5" y1="435.0" y2="435.0" />
    <rect fill="none" height="16.0" rx="4.0" ry="4.0" stroke="#082452" stroke-width="3.0" width="68.0" x="393.5" y="451.0" />
    <line stroke="#082452" stroke-linecap="round" stroke-width="2.2" x1="405.5" x2="445.5" y1="459.0" y2="459.0" />
    <ellipse cx="485.5" cy="397.0" fill="none" rx="42.0" ry="14.0" stroke="#082452" stroke-width="3.0" />
    <line stroke="#082452" stroke-linecap="round" stroke-width="3.0" x1="443.5" x2="443.5" y1="397.0" y2="461.0" />
    <line stroke="#082452" stroke-linecap="round" stroke-width="3.0" x1="527.5" x2="527.5" y1="397.0" y2="461.0" />
    <path d="M 443.5 429.0 C 465.5 443.0, 505.5 443.0, 527.5 429.0" fill="none" stroke="#082452" stroke-width="3.0" />
    <path d="M 443.5 461.0 C 465.5 475.0, 505.5 475.0, 527.5 461.0" fill="none" stroke="#082452" stroke-width="3.0" />
    <text fill="#082452" font-family="Calibri, Arial, Helvetica, sans-serif" font-size="30" font-weight="bold" 
      text-anchor="middle" x="455.5" y="544"><tspan dy="0" x="455.5">Corpus</tspan>
      <tspan dy="33.0" x="455.5">documental</tspan>
      <tspan dy="33.0" x="455.5">normativo</tspan></text><line stroke="#6DA7E8" stroke-linecap="round"                                                        stroke-width="2.5" x1="365" x2="546" y1="657.0" y2="657.0" />
    <text fill="#4D4D4D" font-family="Calibri, Arial, Helvetica, sans-serif" font-size="24" font-weight="normal" 
      text-anchor="middle" x="455.5" y="688.0"><tspan dy="0" x="455.5">NANDINA y</tspan><tspan dy="25" x="455.5">Arancel 2022</tspan></text></g>
  <g id="block_3"><rect fill="#FFFFFF" height="560" rx="15" ry="15" stroke="#0A2A59" stroke-width="4" 
                    width="243" x="634" y="252" /><circle cx="755.5" cy="302" fill="#EAF4FF" r="31" 
                                                    stroke="#6DA7E8" stroke-width="2.5" />
    <text fill="#082452" font-family="Calibri, Arial, Helvetica, sans-serif" font-size="33" 
      font-weight="bold" text-anchor="middle" x="755.5" y="315"><tspan dy="0" x="755.5">3</tspan></text>
    <circle cx="743.5" cy="417.0" fill="none" r="44.0" stroke="#082452" stroke-width="4.0" />
    <circle cx="743.5" cy="417.0" fill="none" r="34.0" stroke="#6DA7E8" stroke-width="2.2" />
    <line stroke="#082452" stroke-linecap="round" stroke-width="5.0" x1="777.5" x2="819.5" y1="451.0" y2="493.0" />
    <line stroke="#082452" stroke-linecap="round" stroke-width="7.0" x1="807.5" x2="825.5" y1="481.0" y2="499.0" />
    <text fill="#082452" font-family="Calibri, Arial, Helvetica, sans-serif" font-size="31" 
      font-weight="bold" text-anchor="middle" x="755.5" y="554"><tspan dy="0" x="755.5">Recuperación</tspan>
      <tspan dy="34.1" x="755.5">documental base</tspan></text><line stroke="#6DA7E8" stroke-linecap="round" 
                                                                 stroke-width="2.5" x1="665" x2="846" y1="636.2" y2="636.2" />
    <text fill="#4D4D4D" font-family="Calibri, Arial, Helvetica, sans-serif" font-size="24" font-weight="normal" 
      text-anchor="middle" x="755.5" y="667.2"><tspan dy="0" x="755.5">Top-N candidatos +</tspan>
      <tspan dy="28.32" x="755.5">evidencias recuperadas</tspan></text></g><g id="block_4">
        <rect fill="#FFFFFF" height="560" rx="15" ry="15" stroke="#0A2A59" stroke-width="4" 
          width="243" x="934" y="252" />
        <circle cx="1055.5" cy="302" fill="#EAF4FF" r="31" stroke="#6DA7E8" stroke-width="2.5" />
        <text fill="#082452" font-family="Calibri, Arial, Helvetica, sans-serif" font-size="33" 
          font-weight="bold" text-anchor="middle" x="1055.5" y="315"><tspan dy="0" x="1055.5">4</tspan></text>
        <path d="M 985.5 435.0 C 977.5 405.0,1003.5 385.0,1027.5 390.0 C 1035.5 365.0,1071.5 377.0,1073.5 403.0 
          C 1102.5 399.0,1113.5 433.0,1096.5 451.0 C 1109.5 479.0,1066.5 491.0,1046.5 471.0 
          C 1024.5 490.0,988.5 470.0,995.5 441.0" fill="none" stroke="#082452" stroke-width="3.4" />
        <line stroke="#082452" stroke-linecap="round" stroke-width="2.3" x1="1001.5" x2="1021.5" y1="419.0" y2="395.0" />
        <line stroke="#082452" stroke-linecap="round" stroke-width="2.3" x1="1021.5" x2="1047.5" y1="395.0" y2="401.0" />
        <line stroke="#082452" stroke-linecap="round" stroke-width="2.3" x1="1001.5" x2="1027.5" y1="419.0" y2="429.0" />
        <line stroke="#082452" stroke-linecap="round" stroke-width="2.3" x1="1027.5" x2="1051.5" y1="429.0" y2="447.0" />
        <line stroke="#082452" stroke-linecap="round" stroke-width="2.3" x1="1027.5" x2="1013.5" y1="429.0" y2="461.0" />
        <line stroke="#082452" stroke-linecap="round" stroke-width="2.3" x1="1047.5" x2="1075.5" y1="401.0" y2="405.0" />
        <line stroke="#082452" stroke-linecap="round" stroke-width="2.3" x1="1075.5" x2="1090.5" y1="405.0" y2="434.0" />
        <line stroke="#082452" stroke-linecap="round" stroke-width="2.3" x1="1090.5" x2="1075.5" y1="434.0" y2="463.0" />
        <line stroke="#082452" stroke-linecap="round" stroke-width="2.3" x1="1051.5" x2="1075.5" y1="447.0" y2="463.0" />
        <circle cx="1001.5" cy="419.0" fill="#FFFFFF" r="4.2" stroke="#082452" stroke-width="2.4" />
        <circle cx="1021.5" cy="395.0" fill="#FFFFFF" r="4.2" stroke="#082452" stroke-width="2.4" />
        <circle cx="1047.5" cy="401.0" fill="#FFFFFF" r="4.2" stroke="#082452" stroke-width="2.4" />
        <circle cx="1027.5" cy="429.0" fill="#FFFFFF" r="4.2" stroke="#082452" stroke-width="2.4" /><circle cx="1051.5" cy="447.0" fill="#FFFFFF" r="4.2" stroke="#082452" stroke-width="2.4" /><circle cx="1013.5" cy="461.0" fill="#FFFFFF" r="4.2" stroke="#082452" stroke-width="2.4" /><circle cx="1075.5" cy="405.0" fill="#FFFFFF" r="4.2" stroke="#082452" stroke-width="2.4" /><circle cx="1090.5" cy="434.0" fill="#FFFFFF" r="4.2" stroke="#082452" stroke-width="2.4" /><circle cx="1075.5" cy="463.0" fill="#FFFFFF" r="4.2" stroke="#082452" stroke-width="2.4" /><polyline fill="none" points="1127.04,407.42 1157.9424,407.42 1169.96,423.9848 1169.96,466.58000000000004 1127.04,466.58000000000004 1127.04,407.42" stroke="#082452" stroke-linecap="round" stroke-linejoin="round" stroke-width="1.8559999999999999" /><polyline fill="none" points="1157.9424,407.42 1157.9424,423.9848 1169.96,423.9848" stroke="#082452" stroke-linecap="round" stroke-linejoin="round" stroke-width="1.8559999999999999" /><rect fill="none" height="12.76" rx="0.8699999999999999" ry="0.8699999999999999" stroke="#082452" stroke-width="1.7399999999999998" width="9.28" x="1134.7656" y="419.252" /><line stroke="#082452" stroke-linecap="round" stroke-width="1.508" x1="1134.7656" x2="1160.2856" y1="439.958" y2="439.958" /><line stroke="#082452" stroke-linecap="round" stroke-width="1.508" x1="1134.7656" x2="1164.9256" y1="446.4656" y2="446.4656" /><line stroke="#082452" stroke-linecap="round" stroke-width="1.508" x1="1134.7656" x2="1163.7656" y1="452.9732" y2="452.9732" /><line stroke="#082452" stroke-linecap="round" stroke-width="1.508" x1="1134.7656" x2="1161.4456" y1="459.48080000000004" y2="459.48080000000004" /><line stroke="#082452" stroke-linecap="round" stroke-width="1.508" x1="1134.7656" x2="1156.2256" y1="465.9884" y2="465.9884" /><line stroke="#6DA7E8" stroke-linecap="round" stroke-width="3.0" x1="1089.5" x2="1115.5" y1="407.0" y2="407.0" /><polyline fill="none" points="1107.5,398.0 1118.5,407.0 1107.5,416.0" stroke="#6DA7E8" stroke-linecap="round" stroke-linejoin="round" stroke-width="3.0" /><line stroke="#6DA7E8" stroke-linecap="round" stroke-width="3.0" x1="1115.5" x2="1089.5" y1="457.0" y2="457.0" /><polyline fill="none" points="1097.5,448.0 1086.5,457.0 1097.5,466.0" stroke="#6DA7E8" stroke-linecap="round" stroke-linejoin="round" stroke-width="3.0" /><text fill="#082452" font-family="Calibri, Arial, Helvetica, sans-serif" font-size="33" font-weight="bold" text-anchor="middle" x="1055.5" y="594"><tspan dy="0" x="1055.5">LLM + RAG</tspan></text><line stroke="#6DA7E8" stroke-linecap="round" stroke-width="2.5" x1="965" x2="1146" y1="644.3" y2="644.3" /><text fill="#4D4D4D" font-family="Calibri, Arial, Helvetica, sans-serif" font-size="24" font-weight="normal" text-anchor="middle" x="1055.5" y="675.3"><tspan dy="0" x="1055.5">Reordenamiento y</tspan><tspan dy="28.32" x="1055.5">generación de</tspan><tspan dy="28.32" x="1055.5">justificación</tspan></text></g><g id="block_5"><rect fill="#FFFFFF" height="560" rx="15" ry="15" stroke="#0A2A59" stroke-width="4" width="243" x="1234" y="252" /><circle cx="1355.5" cy="302" fill="#EAF4FF" r="31" stroke="#6DA7E8" stroke-width="2.5" /><text fill="#082452" font-family="Calibri, Arial, Helvetica, sans-serif" font-size="33" font-weight="bold" text-anchor="middle" x="1355.5" y="315"><tspan dy="0" x="1355.5">5</tspan></text><polyline fill="none" points="1318.5,378.0 1371.78,378.0 1392.5,406.56 1392.5,480.0 1318.5,480.0 1318.5,378.0" stroke="#082452" stroke-linecap="round" stroke-linejoin="round" stroke-width="3.2" /><polyline fill="none" points="1371.78,378.0 1371.78,406.56 1392.5,406.56" stroke="#082452" stroke-linecap="round" stroke-linejoin="round" stroke-width="3.2" /><circle cx="1343.66" cy="403.5" fill="none" r="13.0" stroke="#082452" stroke-width="3.0" /><polyline fill="none" points="1339.22,403.5 1342.92,409.62 1350.32,397.38" stroke="#082452" stroke-linecap="round" stroke-linejoin="round" stroke-width="2.8" /><polyline fill="none" points="1334.78,429.0 1338.48,434.0 1344.4,423.0" stroke="#082452" stroke-linecap="round" stroke-linejoin="round" stroke-width="2.6" /><line stroke="#082452" stroke-linecap="round" stroke-width="2.4" x1="1350.32" x2="1376.22" y1="429.0" y2="429.0" /><polyline fill="none" points="1334.78,447.0 1338.48,452.0 1344.4,441.0" stroke="#082452" stroke-linecap="round" stroke-linejoin="round" stroke-width="2.6" /><line stroke="#082452" stroke-linecap="round" stroke-width="2.4" x1="1350.32" x2="1376.22" y1="447.0" y2="447.0" /><polyline fill="none" points="1334.78,465.0 1338.48,470.0 1344.4,459.0" stroke="#082452" stroke-linecap="round" stroke-linejoin="round" stroke-width="2.6" /><line stroke="#082452" stroke-linecap="round" stroke-width="2.4" x1="1350.32" x2="1376.22" y1="465.0" y2="465.0" /><text fill="#082452" font-family="Calibri, Arial, Helvetica, sans-serif" font-size="30" font-weight="bold" text-anchor="middle" x="1355.5" y="540"><tspan dy="0" x="1355.5">Salida</tspan><tspan dy="33.0" x="1355.5">estructurada</tspan><tspan dy="33.0" x="1355.5">auditable</tspan></text><line stroke="#6DA7E8" stroke-linecap="round" stroke-width="2.5" x1="1265" x2="1446" y1="653.0" y2="653.0" /><text fill="#4D4D4D" font-family="Calibri, Arial, Helvetica, sans-serif" font-size="24" font-weight="normal" text-anchor="middle" x="1355.5" y="684.0"><tspan dy="0" x="1355.5">Subpartida</tspan><tspan dy="28.32" x="1355.5">recomendada, puntaje,</tspan><tspan dy="28.32" x="1355.5">evidencias y</tspan><tspan dy="28.32" x="1355.5">justificación</tspan></text></g><g id="block_6"><rect fill="#FFFFFF" height="560" rx="15" ry="15" stroke="#0A2A59" stroke-width="4" width="243" x="1534" y="252" /><circle cx="1655.5" cy="302" fill="#EAF4FF" r="31" stroke="#6DA7E8" stroke-width="2.5" /><text fill="#082452" font-family="Calibri, Arial, Helvetica, sans-serif" font-size="33" font-weight="bold" text-anchor="middle" x="1655.5" y="315"><tspan dy="0" x="1655.5">6</tspan></text><rect fill="none" height="92.0" rx="4.0" ry="4.0" stroke="#082452" stroke-width="3.4" width="156.0" x="1577.5" y="375.0" /><line stroke="#082452" stroke-linecap="round" stroke-width="3.0" x1="1577.5" x2="1733.5" y1="394.0" y2="394.0" /><rect fill="none" height="22.0" rx="0" ry="0" stroke="#082452" stroke-width="2.6" width="10.0" x="1600.5" y="427.0" /><rect fill="none" height="36.0" rx="0" ry="0" stroke="#082452" stroke-width="2.6" width="10.0" x="1619.5" y="413.0" /><rect fill="none" height="52.0" rx="0" ry="0" stroke="#082452" stroke-width="2.6" width="10.0" x="1638.5" y="397.0" /><rect fill="none" height="66.0" rx="0" ry="0" stroke="#082452" stroke-width="2.6" width="10.0" x="1657.5" y="383.0" /><circle cx="1697.5" cy="427.0" fill="none" r="22.0" stroke="#082452" stroke-width="3.0" /><line stroke="#082452" stroke-linecap="round" stroke-width="2.5" x1="1697.5" x2="1697.5" y1="427.0" y2="405.0" /><line stroke="#082452" stroke-linecap="round" stroke-width="2.5" x1="1697.5" x2="1719.5" y1="427.0" y2="427.0" /><line stroke="#082452" stroke-linecap="round" stroke-width="2.4" x1="1675.5" x2="1717.5" y1="474.0" y2="474.0" /><line stroke="#082452" stroke-linecap="round" stroke-width="2.4" x1="1675.5" x2="1717.5" y1="492.0" y2="492.0" /><text fill="#082452" font-family="Calibri, Arial, Helvetica, sans-serif" font-size="30" font-weight="bold" text-anchor="middle" x="1655.5" y="552"><tspan dy="0" x="1655.5">Evaluación offline</tspan></text><line stroke="#6DA7E8" stroke-linecap="round" stroke-width="2.5" x1="1565" x2="1746" y1="599.0" y2="599.0" /><text fill="#4D4D4D" font-family="Calibri, Arial, Helvetica, sans-serif" font-size="24" font-weight="normal" text-anchor="middle" x="1655.5" y="630.0"><tspan dy="0" x="1655.5">Top-k, MRR, nDCG,</tspan><tspan dy="28.32" x="1655.5">rúbrica de explicación</tspan><tspan dy="28.32" x="1655.5">y análisis de errores</tspan></text></g><line stroke="#0B2F63" stroke-linecap="round" stroke-width="7" x1="289" x2="306" y1="532.0" y2="532.0" /><polygon fill="#0B2F63" points="304,516.0 324,532.0 304,548.0" /><line stroke="#0B2F63" stroke-linecap="round" stroke-width="7" x1="589" x2="606" y1="532.0" y2="532.0" /><polygon fill="#0B2F63" points="604,516.0 624,532.0 604,548.0" /><line stroke="#0B2F63" stroke-linecap="round" stroke-width="7" x1="889" x2="906" y1="532.0" y2="532.0" /><polygon fill="#0B2F63" points="904,516.0 924,532.0 904,548.0" /><line stroke="#0B2F63" stroke-linecap="round" stroke-width="7" x1="1189" x2="1206" y1="532.0" y2="532.0" /><polygon fill="#0B2F63" points="1204,516.0 1224,532.0 1204,548.0" /><line stroke="#0B2F63" stroke-linecap="round" stroke-width="7" x1="1489" x2="1506" y1="532.0" y2="532.0" /><polygon fill="#0B2F63" points="1504,516.0 1524,532.0 1504,548.0" /><rect fill="#F0F7FF" height="96" stroke="none" width="1920" x="0" y="905" /><line stroke="#082452" stroke-width="3" x1="0" x2="1920" y1="905" y2="905" /><line stroke="#082452" stroke-width="3" x1="0" x2="1920" y1="1001" y2="1001" /><g id="footer_icon"><circle cx="332" cy="953" fill="#FFFFFF" r="36" stroke="#082452" stroke-width="2.5" /><line stroke="#082452" stroke-linecap="round" stroke-width="2.5" x1="332" x2="332" y1="928" y2="975" /><line stroke="#082452" stroke-linecap="round" stroke-width="2.5" x1="316" x2="348" y1="940" y2="940" /><line stroke="#082452" stroke-linecap="round" stroke-width="2.1" x1="322" x2="311" y1="940" y2="964" /><line stroke="#082452" stroke-linecap="round" stroke-width="2.1" x1="322" x2="333" y1="940" y2="964" /><line stroke="#082452" stroke-linecap="round" stroke-width="2.1" x1="342" x2="331" y1="940" y2="964" /><line stroke="#082452" stroke-linecap="round" stroke-width="2.1" x1="342" x2="353" y1="940" y2="964" /><path d="M 303 966 Q 316 977 329 966" fill="none" stroke="#082452" stroke-width="2.2" /><path d="M 325 966 Q 342 979 360 966" fill="none" stroke="#082452" stroke-width="2.2" /><line stroke="#082452" stroke-linecap="round" stroke-width="2.5" x1="320" x2="344" y1="981" y2="981" /></g><text fill="#082452" font-family="Calibri, Arial, Helvetica, sans-serif" font-size="31" font-weight="bold" text-anchor="middle" x="1055.0" y="964"><tspan dy="0" x="1055.0">Piloto experimental offline: apoyo a la recomendación, no clasificación oficial</tspan></text></svg>
